<?xml version="1.0" encoding="UTF-8"?>
<svg id="Layer_1" xmlns="http://www.w3.org/2000/svg" version="1.1" viewBox="0 0 226 293">
  <!-- Generator: Adobe Illustrator 29.2.1, SVG Export Plug-In . SVG Version: 2.1.0 Build 116)  -->
  <defs>
    <style>
      .st0 {
        fill: #dec49e;
      }

      .st1 {
        font-family: Poppins-Regular, Poppins;
        font-size: 35.7px;
      }

      .st1, .st2 {
        fill: #fff;
      }

      .st3 {
        fill: #f2f2f2;
      }

      .st3, .st4 {
        stroke: #ccc;
        stroke-miterlimit: 10;
        stroke-width: 2px;
      }

      .st4 {
        fill: #eae4e1;
      }

      .st5 {
        fill: #6e9d9a;
      }
    </style>
  </defs>
  <path class="st4" d="M46.2,61.2l23.9-6.3c9.8-2.6,20.5-5.6,31-8.9.2,0,.3-.2.3-.4v-16.1c0-.3-.4-.5-.7-.3l-14.2,10.4c-8.2,6-30.6,16.3-40.6,20.8-.5.2-.2.9.3.8h0Z"/>
  <path class="st2" d="M72,62.5l-12.8,3.4c-1.1.3-.9,1.9.3,1.9h102.4c.5,0,1-.4,1-1V28.9c0-.8-.9-1.3-1.5-.8l-.6.4c-22.6,15.6-59.3,28.9-88.6,33.9,0,0,0,0,0,0h0Z"/>
  <path class="st3" d="M153,140.3c0,1.2-.9,2.1-2.1,2.1h-66.8c-1.2,0-2.1-.9-2.1-2.1v-34.9c0-1.2.9-2.1,2.1-2.1h66.8c1.2,0,2.1.9,2.1,2.1v34.9h0ZM179.5,75.6H59.3c-1.9,0-3.5,1.6-3.5,3.5v124.5c0,2,1.6,3.5,3.5,3.5h120.2c1.9,0,3.5-1.6,3.5-3.5v-124.5c0-1.9-1.6-3.5-3.5-3.5h0Z"/>
  <path class="st2" d="M45.6,75.6h-10.3c-4,0-7.3,3.3-7.3,7.3v116.9c0,4,3.3,7.3,7.3,7.3h10.3c1.8,0,3.3-1.5,3.3-3.3v-125c0-1.8-1.5-3.3-3.3-3.3h0Z"/>
  <path class="st0" d="M139.8,111.4h-45.7c-.9,0-1.7.8-1.7,1.7v4.7c0,.9.8,1.7,1.7,1.7h45.7c.9,0,1.7-.8,1.7-1.7v-4.7c0-.9-.8-1.7-1.7-1.7h0Z"/>
  <path class="st0" d="M139.8,127h-45.7c-.9,0-1.7.8-1.7,1.7v4.7c0,.9.8,1.7,1.7,1.7h45.7c.9,0,1.7-.8,1.7-1.7v-4.7c0-.9-.8-1.7-1.7-1.7h0Z"/>
  <rect class="st5" x="-503" y="-100" width="226" height="510"/>
  <path class="st4" d="M-456.8,73.2l23.9-6.3c9.8-2.6,20.5-5.6,31-8.9.2,0,.3-.2.3-.4v-16.1c0-.3-.4-.5-.7-.3l-14.2,10.4c-8.2,6-30.6,16.3-40.6,20.8-.5.2-.2.9.3.8h0Z"/>
  <path class="st2" d="M-431,74.5l-12.8,3.4c-1.1.3-.9,1.9.3,1.9h102.4c.5,0,1-.4,1-1v-37.9c0-.8-.9-1.3-1.5-.8l-.6.4c-22.6,15.6-59.3,28.9-88.6,33.9,0,0,0,0,0,0h0Z"/>
  <path class="st3" d="M-350,152.3c0,1.2-.9,2.1-2.1,2.1h-66.8c-1.2,0-2.1-.9-2.1-2.1v-34.9c0-1.2.9-2.1,2.1-2.1h66.8c1.2,0,2.1.9,2.1,2.1v34.9h0ZM-323.5,87.6h-120.2c-1.9,0-3.5,1.6-3.5,3.5v124.5c0,2,1.6,3.5,3.5,3.5h120.2c1.9,0,3.5-1.6,3.5-3.5v-124.5c0-1.9-1.6-3.5-3.5-3.5h0Z"/>
  <path class="st2" d="M-457.4,87.6h-10.3c-4,0-7.3,3.3-7.3,7.3v116.9c0,4,3.3,7.3,7.3,7.3h10.3c1.8,0,3.3-1.5,3.3-3.3v-125c0-1.8-1.5-3.3-3.3-3.3h0Z"/>
  <path class="st0" d="M-363.2,123.4h-45.7c-.9,0-1.7.8-1.7,1.7v4.7c0,.9.8,1.7,1.7,1.7h45.7c.9,0,1.7-.8,1.7-1.7v-4.7c0-.9-.8-1.7-1.7-1.7h0Z"/>
  <path class="st0" d="M-363.2,139h-45.7c-.9,0-1.7.8-1.7,1.7v4.7c0,.9.8,1.7,1.7,1.7h45.7c.9,0,1.7-.8,1.7-1.7v-4.7c0-.9-.8-1.7-1.7-1.7h0Z"/>
  <text class="st1" transform="translate(-483 275.8)"><tspan x="0" y="0">Catálogo</tspan></text>
</svg>