<?xml version="1.0" encoding="UTF-8"?>
<svg width="80px" height="69px" viewBox="0 0 80 69" version="1.1" xmlns="http://www.w3.org/2000/svg" xmlns:xlink="http://www.w3.org/1999/xlink">
    <title>Lesson-chat</title>
    <g id="Lesson-chat" stroke="none" stroke-width="1" fill="none" fill-rule="evenodd">
        <g id="Chat-icon-02" transform="translate(13.000000, 9.000000)" fill-rule="nonzero">
            <g id="XMLID_4_">
                <path d="M51.6,3.8 C49.5,1.7 46.7,0.5 43.7,0.5 L11.9,0.5 C8.9,0.5 6.1,1.7 4,3.8 C1.9,5.9 0.7,8.7 0.7,11.7 L0.7,27.8 C0.7,30.8 1.9,33.6 4,35.7 C6.1,37.8 8.9,39 11.9,39 L12.3,39 L12.3,35.4 L11.9,35.4 C7.7,35.4 4.3,32 4.3,27.8 L4.3,11.7 C4.3,7.5 7.7,4.1 11.9,4.1 L43.7,4.1 C47.9,4.1 51.3,7.5 51.3,11.7 L51.3,27.8 C51.3,32 47.9,35.4 43.7,35.4 L42,35.4 L42,44.7 L28.4,35.4 L22.8,39 L27.3,39 L45.5,51.5 L45.5,38.9 C47.8,38.5 49.9,37.5 51.6,35.8 C53.7,33.7 54.9,30.9 54.9,27.9 L54.9,11.7 C54.9,8.7 53.7,5.9 51.6,3.8 Z" id="XMLID_6_" fill="#FFFFFF"></path>
                <path d="M14.5,6.3 L41.1,6.3 C45.4,6.3 49,9.6 49,13.6 L49,26 C49,30 45.5,33.3 41.1,33.3 L27.8,33.3 L14.5,41.7 L14.5,33.3 C10.2,33.3 6.6,30 6.6,26 L6.6,13.5 C6.6,9.5 10.1,6.3 14.5,6.3 Z" id="XMLID_5_" fill="#D0E6EE"></path>
            </g>
            <path d="M34.7,17.8 C34.4,17.5 34.2,17.1 34,16.7 L26.9,16.7 L22.4,21.4 C22.8,21.3 23.1,21.3 23.5,21.2 C24.6,21 25.7,20.9 26.8,20.9 L32.3,20.9 L32.3,26 L25,26 C23.5,26 22.1,25.3 21.3,24.1 C20.3,22.8 19.7,21.1 19.8,19.4 C19.8,17.7 20.3,16 21.3,14.7 C22.1,13.5 23.5,12.7 25,12.7 L33.5,12.5 L33.5,12.5 C33.7,11.6 34.1,10.7 34.7,10 C35.4,9 36.6,8.5 37.8,8.5 L37.8,8.5 L25,8.5 C22.3,8.5 19.8,9.7 18.1,11.7 C16.2,13.8 15.2,16.6 15.3,19.4 C15.2,22.2 16.3,25 18.2,27 C19.9,29 22.4,30.2 25,30.2 L36.4,30.2 L36.5,19.2 L36.5,19.2 C35.7,18.8 35.1,18.3 34.7,17.8 Z" id="logoG-27_2_" fill="#D99289"></path>
        </g>
    </g>
</svg>