<svg width="73" height="73" viewBox="0 0 73 73" xmlns="http://www.w3.org/2000/svg">
  <g transform="translate(13 9)" fill="none" fill-rule="evenodd">
    <rect x="8" y="5" width="34" height="45" rx="4" fill="#27466C"/>
    <path d="M33 5h5.5L42 8.6V50H14a6 6 0 0 1-6-6V9a4 4 0 0 1 4-4h21z" fill="#27466C"/>
    <path d="M33 5v9a3 3 0 0 0 3 3h6" fill="#6AD8D2"/>
    <rect x="14" y="17" width="22" height="3" rx="1.5" fill="#fff" opacity=".95"/>
    <rect x="14" y="25" width="20" height="2.5" rx="1.25" fill="#fff" opacity=".72"/>
    <rect x="14" y="32" width="16" height="2.5" rx="1.25" fill="#fff" opacity=".72"/>
    <rect x="14" y="39" width="23" height="2.5" rx="1.25" fill="#fff" opacity=".72"/>
    <rect x="0" y="18" width="25" height="30" rx="4" fill="#E88B19"/>
    <path d="M6 27h13M6 34h10M6 41h13" stroke="#fff" stroke-width="2.2" stroke-linecap="round"/>
    <circle cx="39" cy="45" r="10" fill="#6AD8D2"/>
    <path d="M35 45l2.8 2.8L44 41.5" stroke="#fff" stroke-width="2.4" stroke-linecap="round" stroke-linejoin="round"/>
  </g>
</svg>
