<?xml version="1.0" encoding="UTF-8"?>
<svg width="73px" height="73px" viewBox="0 0 73 73" version="1.1" xmlns="http://www.w3.org/2000/svg" xmlns:xlink="http://www.w3.org/1999/xlink">
    <title>Icon-Menu--Groups</title>
    <g id="Icon-Menu--Groups" stroke="none" stroke-width="1" fill="none" fill-rule="evenodd">
        <g id="Artboard-–-6" transform="translate(5.000000, 17.000000)" fill-rule="nonzero" stroke="#C1BCB4" stroke-width="0.9">
            <g id="Component_49_3">
                <path d="M55.875642,21.9640994 C54.584216,22.9508771 53.0037537,23.484877 51.3784815,23.4835809 L50.6998519,23.4835809 C49.0745577,23.4850112 47.4940534,22.9509972 46.2026914,21.9640994 C45.1450134,22.1364969 44.1294934,22.507417 43.2096914,23.0572969 C46.6490764,25.4401881 48.6949918,29.3634923 48.6801852,33.5476673 C48.6791653,33.896121 48.6300347,34.2427651 48.5341852,34.5777784 C49.3452963,34.6381611 50.1798395,34.6679018 51.038716,34.6679018 C57.685321,34.6679018 63.0710988,32.7680994 63.0710988,30.4239883 C63.0696985,26.2218146 60.0231223,22.6398744 55.875642,21.9640994 L55.875642,21.9640994 Z" id="Path_780" fill="#E5ECEF"></path>
                <path d="M42.2931358,8.70513641 L42.8825432,8.96018579 L42.8329753,9.356729 C42.6155234,9.39356975 42.4514103,9.574252 42.4355903,9.79423449 C42.4197704,10.014217 42.5563412,10.2165228 42.766284,10.2840994 L42.4057901,15.3012722 C42.3956039,15.5517545 42.4260388,15.8022339 42.4959136,16.0429883 L42.7870123,16.9144821 C42.8528025,17.1145562 42.9618519,17.1145562 43.027642,16.9144821 L43.319642,16.0429883 C43.3902146,15.8023771 43.4206635,15.5517826 43.4097654,15.3012722 L43.0492716,10.2840994 C43.2592171,10.2163643 43.3956584,10.013891 43.3796221,9.79387288 C43.3635857,9.57385473 43.1992274,9.39330565 42.981679,9.356729 L42.935716,8.98722283 L44.2983827,9.5784327 L44.9652963,9.86682776 L44.9652963,12.3902846 C44.7125145,13.0899332 44.5835131,13.8282605 44.5840741,14.5721734 C44.5840741,18.1248401 47.4743333,21.8947043 51.0260988,21.8947043 C54.5778642,21.8947043 57.4681235,18.1248401 57.4681235,14.5721734 C57.4685682,13.8292294 57.3398794,13.0918611 57.0878025,12.3929883 L57.0878025,9.86682776 L57.754716,9.5784327 L59.7707778,8.70513641 C60.2970988,8.47622283 60.2970988,8.10311172 59.7707778,7.87419813 L51.9841111,4.50448209 C51.36528,4.27583636 50.6851151,4.27583636 50.066284,4.50448209 L42.2931358,7.87419813 C41.7668148,8.10311172 41.7668148,8.47892653 42.2931358,8.70513641 Z" id="Path_781" fill="#E5ECEF"></path>
                <path d="M19.8028272,23.0176426 C18.8981155,22.4890099 17.9036275,22.1318497 16.8693086,21.9640994 C15.5778508,22.9508171 13.9974093,23.4848099 12.3721481,23.4835809 L11.6935185,23.4835809 C10.0682683,23.4847429 8.48784784,22.9507571 7.19635802,21.9640994 C3.04784652,22.6395891 0.000588933609,26.222645 0,30.4257907 C0,32.7690006 5.38758025,34.6697043 12.0323827,34.6697043 C12.8489012,34.6697043 13.6455926,34.6408648 14.4170494,34.5858895 C14.3200054,34.2480081 14.2702646,33.8983059 14.2692469,33.546766 C14.2558951,29.3371465 16.3281484,25.3941278 19.8028272,23.0176426 L19.8028272,23.0176426 Z" id="Path_782" fill="#E5ECEF"></path>
                <path d="M3.29130864,8.70513641 L3.88161728,8.96018579 L3.83204938,9.356729 C3.61469343,9.39383292 3.45082453,9.57464842 3.43522088,9.79459578 C3.41961723,10.0145431 3.55631833,10.2166819 3.76625926,10.2840994 L3.40576543,15.3012722 C3.3954196,15.5517609 3.42585764,15.8022659 3.49588889,16.0429883 L3.78698765,16.9144821 C3.85277778,17.1145562 3.96092593,17.1145562 4.02761728,16.9144821 L4.31871605,16.0429883 C4.38972914,15.802468 4.420187,15.5517998 4.40883951,15.3012722 L4.04834568,10.2840994 C4.25829116,10.2163643 4.39473243,10.013891 4.37869613,9.79387288 C4.36265982,9.57385473 4.19830146,9.39330565 3.98075309,9.356729 L3.93479012,8.98722283 L5.29745679,9.5784327 L5.96437037,9.86682776 L5.96437037,12.3902846 C5.71158858,13.0899332 5.58258716,13.8282605 5.58314815,14.5721734 C5.58314815,18.1248401 8.47340741,21.8947043 12.0251728,21.8947043 C15.5769383,21.8947043 18.4671975,18.1248401 18.4671975,14.5721734 C18.4678034,13.8292934 18.3394237,13.0919485 18.0877778,12.3929883 L18.0877778,9.86682776 L18.7546914,9.5784327 L18.9619753,9.48830925 L19.0439877,8.34013641 C18.8001526,7.95956167 18.6709448,7.51687617 18.6717778,7.06488949 C18.6717778,7.03244505 18.6771852,7.00180307 18.6789877,6.96935863 L12.9958025,4.50448209 C12.376943,4.27599504 11.6968348,4.27599504 11.0779753,4.50448209 L3.29220988,7.87419813 C2.76769136,8.10311172 2.76769136,8.47892653 3.29130864,8.70513641 Z" id="Path_783" fill="#E5ECEF"></path>
                <path d="M37.695037,22.6715685 C36.0342421,23.9395526 34.0022184,24.6255507 31.912716,24.6236426 L31.040321,24.6236426 C28.9511052,24.6254868 26.9193872,23.939485 25.2589012,22.6715685 C19.9252505,23.5404971 16.0076325,28.1473045 16.0068272,33.5512722 C16.0068272,36.5640994 22.9328148,39.0073463 31.4774198,39.0073463 C40.0220247,39.0073463 46.9480123,36.5640994 46.9480123,33.5512722 C46.9471351,28.1470146 43.029046,23.540102 37.695037,22.6715685 L37.695037,22.6715685 Z" id="Path_784" fill="#FFFFFF"></path>
                <path d="M20.232716,5.62111172 L20.9915556,5.9491611 L20.9275679,6.45835863 C20.6476076,6.50573114 20.4363756,6.7384553 20.4162673,7.02168241 C20.3961591,7.30490952 20.5723926,7.56514256 20.8428519,7.6515932 L20.3814198,14.1026302 C20.3695456,14.4251527 20.4100252,14.7474677 20.501284,15.0570376 L20.8752963,16.1781734 C20.9600123,16.4350253 21.0997037,16.4350253 21.185321,16.1781734 L21.5593333,15.0570376 C21.6513845,14.7476336 21.6918805,14.4251878 21.6791975,14.1026302 L21.2195679,7.6515932 C21.4900518,7.56419609 21.6655148,7.30295333 21.6441065,7.01950761 C21.6226982,6.73606189 21.4099869,6.50413743 21.1294444,6.45835863 L21.0717654,5.98430925 L22.8228642,6.74314875 L23.6817407,7.11445739 L23.6817407,10.3589018 C23.356731,11.2585418 23.1908301,12.2078976 23.1914691,13.164445 C23.1914691,17.7319018 26.9072593,22.5796426 31.474716,22.5796426 C36.0421728,22.5796426 39.7570617,17.7319018 39.7570617,13.164445 C39.7576595,12.2092316 39.5923814,11.2611691 39.2685926,10.3625068 L39.2685926,7.11445739 L40.1256667,6.74314875 L42.7176173,5.62111172 C43.3953457,5.32640801 43.3953457,4.84785246 42.7176173,4.55314875 L32.7067037,0.22001295 C31.9109525,-0.0733376499 31.0366772,-0.0733376499 30.2409259,0.22001295 L20.232716,4.55314875 C19.5549877,4.84695122 19.5549877,5.32821048 20.232716,5.62111172 Z" id="Path_785" fill="#FFFFFF"></path>
            </g>
        </g>
    </g>
</svg>