<?xml version="1.0" encoding="utf-8"?>
<!-- Generator: Adobe Illustrator 21.1.0, SVG Export Plug-In . SVG Version: 6.00 Build 0)  -->
<svg version="1.1" id="Layer_1" xmlns="http://www.w3.org/2000/svg" xmlns:xlink="http://www.w3.org/1999/xlink" x="0px" y="0px"
	 viewBox="0 0 499 177" style="enable-background:new 0 0 499 177;" xml:space="preserve">
<style type="text/css">
	.st0{fill:#F5F5F4;}
	.st1{fill:#F47D45;}
</style>
<g>
	<path class="st0" d="M154.6,25.2c-5.5,6.5-8.2,14.3-8.2,23.4c0,9.9,2.7,18.4,8.2,25.6c5.5,7.1,12.1,10.7,19.8,10.7h34.4l11-11.6
		l-0.1,14.4l10.6-2.3l0.2-52.8c2.5,1.7,4.4,3,5.7,4c4.3,3.1,7.3,5.6,9.2,7.5c2.5,2.5,6,7.2,10.6,14.2c3.9,6.1,7.8,12.3,11.8,18.4
		v11.1l11.7-2.4l-0.2-69.7H268v39.8c-1.8-3.4-3.3-6.2-4.5-8.2c-3.7-6-7.5-10.8-11.4-14.3c-3.4-3.2-6.5-5.9-9.2-8.2
		c-3.8-3.2-7.2-5.6-10.2-7.4c-2.2-1.4-4.6-2.4-7.1-3c-1.4-0.3-3.2-0.5-5.4-0.6l-0.3,58.5c-0.5,0.3-1,0.5-1.5,0.6
		c-2.9,1.1-5.8,1.6-8.8,1.6h-32.1c-5.4,0-10-2.4-13.8-7.2c-2.7-3.3-4.4-7.1-5.2-11.3l40.9,0.6l12.2-12.6h-53c0.8-4,2.5-7.7,5.1-10.8
		c3.8-4.8,8.4-7.2,13.8-7.2h31.3l10.8-10.5h-45.3C166.6,15.4,160,18.7,154.6,25.2z"/>
	<path class="st0" d="M287.5,88.2l13.8-3.5c0.5-0.5,0.9-1,1-1.3c1.2-1.7,1.9-2.9,1.9-3.7L331,36.2l7,11.5l-12.9,0l-6.4,10.5h25.6
		l13.8,22.2c0,0.5,0.7,1.9,2.2,4.2c0.5,0.7,1.2,1.7,2.1,3.1l10.8-2.9l-42-69.1l-34.7,57.8v-58h-10.5l-0.1,72.2l2.5-0.7L287.5,88.2z"
		/>
	<path class="st0" d="M416.6,72.2c-1.4,0.4-2.6,0.7-3.6,0.8c-2.9,0.5-6,0.7-9.2,0.7h-19.6L383.9,15h-10.5l-0.1,69.2h31.4L416.6,72.2
		z"/>
	<path class="st1" d="M148.4,77.3c-1.9-2.5-3.5-5.1-4.8-7.8H93l-32,33.2c3.3-0.7,5.9-1.1,7.7-1.2c10.6-1.5,18.3-2.2,23.3-2.2H131
		V136H78.9c-10.4,0-19.2-4.6-26.4-13.8s-10.8-20.3-10.8-33.3c0-13.1,3.6-24.3,10.9-33.7c7.3-9.4,16-14.1,26.3-14.1l61-1.2l0.1-0.1
		c1.3-6.6,4-12.4,8.3-17.5c6.1-7.2,13.4-10.9,22.1-10.9l0,0H78.9c-19.2,0-35.5,7.6-49.1,22.8C16.3,49.3,9.5,67.6,9.5,88.9
		c0,21.2,6.9,39.2,20.6,54.3c13.7,15,30,22.6,48.8,22.6h81.3l0.4-78.1l-0.3-0.3C155.9,85.3,151.9,82,148.4,77.3z"/>
	<path class="st0" d="M215.8,134.1h-24.9c-2.1,0-3.8-0.6-5-1.7s-1.8-2.8-1.8-4.9s0.6-3.7,1.8-4.9c1.2-1.2,2.9-1.8,5.1-1.8h39v-9.5
		h-39c-2.7,0-5.1,0.4-7.2,1.2c-2.1,0.8-3.8,1.8-5.3,3.2s-2.5,2.9-3.2,4.8c-0.7,1.9-1.1,3.9-1.1,6.1c0,2.2,0.4,4.3,1.2,6.2
		c0.8,1.9,1.9,3.5,3.3,4.9s3.2,2.4,5.2,3.2s4.4,1.2,6.9,1.2h25c2.5,0,4.5,0.6,5.9,1.8s2.1,2.9,2.1,5.3c0,2.1-0.7,3.9-2.1,5.2
		s-3.3,1.9-5.9,1.9h-40.7v9.5h40.7c2.8,0,5.3-0.4,7.4-1.2s3.9-1.9,5.3-3.3c1.4-1.4,2.4-3.1,3.1-5c0.7-1.9,1-4.1,1-6.4
		c0-5.3-1.4-9.2-4.3-11.8C225.6,135.4,221.4,134.1,215.8,134.1z"/>
	<rect x="306.8" y="111.4" class="st0" width="9.5" height="54.3"/>
	<polygon class="st0" points="335.7,111.4 326.2,111.4 326.2,165.7 372.2,165.7 372.2,156.2 335.7,156.2 	"/>
	<polygon class="st0" points="388.5,111.4 379,111.4 379,165.7 425.1,165.7 425.1,156.2 388.5,156.2 	"/>
	<path class="st0" d="M485.2,138c-2.9-2.6-7.1-3.9-12.6-3.9h-24.9c-2.1,0-3.8-0.6-5-1.7s-1.8-2.8-1.8-4.9s0.6-3.7,1.8-4.9
		c1.2-1.2,2.9-1.8,5.1-1.8h39v-9.5h-39c-2.7,0-5.1,0.4-7.2,1.2c-2.1,0.8-3.8,1.8-5.3,3.2c-1.4,1.3-2.5,2.9-3.2,4.8
		c-0.7,1.9-1.1,3.9-1.1,6.1c0,2.2,0.4,4.3,1.2,6.2c0.8,1.9,1.9,3.5,3.3,4.9s3.2,2.4,5.2,3.2s4.4,1.2,6.9,1.2h25
		c2.5,0,4.5,0.6,5.9,1.8s2.1,2.9,2.1,5.3c0,2.1-0.7,3.9-2.1,5.2s-3.3,1.9-5.9,1.9h-40.7v9.5h40.7c2.8,0,5.3-0.4,7.4-1.2
		s3.9-1.9,5.3-3.3c1.4-1.4,2.4-3.1,3.1-5c0.7-1.9,1-4.1,1-6.4C489.5,144.5,488.1,140.6,485.2,138z"/>
	<rect x="170.4" y="94.8" class="st0" width="318" height="7.2"/>
	<path class="st0" d="M299,111.2h-14.6l-28.8,22.1c-0.5,0.3-0.8,0.7-1.1,1H268L299,111.2z"/>
	<polygon class="st0" points="240.9,165.6 250.4,165.6 250.4,142.5 250.4,134.4 250.4,111.2 240.9,111.2 	"/>
	<polygon class="st0" points="256.2,142.5 285.6,165.6 300.1,165.6 269.6,142.5 	"/>
</g>
</svg>
