<?xml version="1.0" encoding="UTF-8"?>
<svg width="73px" height="73px" viewBox="0 0 73 73" version="1.1" xmlns="http://www.w3.org/2000/svg" xmlns:xlink="http://www.w3.org/1999/xlink">
    <title>Icon-Menu--Home</title>
    <g id="Icon-Menu--Home" stroke="none" stroke-width="1" fill="none" fill-rule="evenodd">
        <g id="Artboard-–-2" transform="translate(13.000000, 15.000000)" fill-rule="nonzero">
            <g id="Component_28_3">
                <path d="M33.3590962,23.9737136 C33.0740352,23.590611 32.8295784,23.1782925 32.6297511,22.7435477 L24.9079697,22.7435477 L20.0186925,27.9575353 C20.4057699,27.8701943 20.7971418,27.803588 21.1911716,27.757995 C22.3695029,27.5644554 23.5588964,27.4474844 24.752034,27.4078018 L30.7012796,27.4078018 L30.7012796,33.1665344 L22.7485554,33.1665344 C21.1355225,33.1552678 19.6291569,32.3499347 18.7119903,31.0085062 C17.5918287,29.5038037 17.0106695,27.6589869 17.0638084,25.77656 C17.0175469,23.8747648 17.6042037,22.0123286 18.7297551,20.4877448 C19.6258709,19.1264546 21.1272859,18.2981602 22.7446077,18.2728477 L32.0642372,18.0733074 L32.0750935,18.0623327 C32.2610371,17.0527484 32.6985408,16.1077605 33.3462661,15.3166584 C34.1478532,14.248108 35.3940625,13.6154425 36.7205977,13.603539 L36.7275062,13.603539 L22.7485554,13.603539 C19.8423428,13.5927955 17.0864282,14.9080703 15.2478476,17.1833577 C13.1811944,19.5535724 12.0718195,22.6227647 12.1399885,25.7815485 C12.0745942,28.9230498 13.1998796,31.9709416 15.2853511,34.3009209 C17.1300874,36.5421343 19.8644152,37.8390431 22.7485554,37.8407655 L35.1740701,37.8407655 L35.2342732,25.576022 L35.1957827,25.5221462 C34.4642309,25.1707576 33.8324278,24.6381111 33.3590962,23.9737136 L33.3590962,23.9737136 Z" id="logoG-27" fill="#E6EEF0"></path>
                <g id="home-01" fill="#FFFFFF">
                    <path d="M47.4416752,20.233331 L47.4416752,20.233331 L39.6833773,13.3691452 L39.6833773,3.07286666 C39.6899588,2.10175012 38.918813,1.3079211 37.9582145,1.29695815 L32.051407,1.29695815 C31.0849739,1.3019029 30.3044191,2.09587911 30.3055186,3.07286666 L30.3055186,5.04632006 L25.0806834,0.410001592 C24.4620696,-0.136667197 23.5388959,-0.136667197 22.9202821,0.410001592 L0.557316442,20.233331 C0.0441969385,20.6876172 -0.135656231,21.4163975 0.106247501,22.0611007 C0.348151232,22.7058039 0.960873429,23.1306727 1.64294521,23.1266651 L5.59068619,23.1266651 C5.57884297,24.2919803 5.56897361,28.2947584 5.56107813,42.3224402 C5.55943903,42.7710494 5.73628874,43.2014869 6.0518408,43.516916 C6.36739285,43.8323451 6.79514631,44.0062751 7.23886805,43.9997945 L40.7620975,43.9997945 C41.2063231,44.0068331 41.6346974,43.8328093 41.950428,43.5168262 C42.2661587,43.2008431 42.442601,42.7695666 42.4398874,42.3204448 C42.4398874,28.2917653 42.4260703,24.2899849 42.4142271,23.1246697 L46.3619681,23.1246697 C47.0430945,23.1274358 47.6542354,22.7021276 47.8947939,22.0579382 C48.1353523,21.4137487 47.9546929,20.6862739 47.4416752,20.233331 Z M47.1613856,21.7807659 C47.0407383,22.1154575 46.7241906,22.336658 46.3718374,22.3324947 L42.0293223,22.3324947 C41.919284,22.3321814 41.8141099,22.3783105 41.739162,22.4597584 C41.6642141,22.5412062 41.6262949,22.6505805 41.6345482,22.7615063 C41.6493523,23.2234421 41.6572478,35.7416017 41.6602086,42.3244356 C41.6602469,42.5611404 41.5661638,42.7879259 41.3991162,42.9537936 C41.2320686,43.1196614 41.0060789,43.2106879 40.7719668,43.2066524 L7.24182885,43.2066524 C7.00668917,43.2120398 6.77921812,43.121677 6.6107806,42.9557199 C6.44234307,42.7897629 6.34714344,42.5622067 6.34667859,42.3244356 C6.34667859,35.7396063 6.36148261,23.2244398 6.37628664,22.7615063 C6.38352815,22.6629519 6.35433921,22.5651865 6.29437102,22.4871385 C6.21963921,22.3896401 6.1045106,22.3325528 5.98249948,22.3324947 L1.63998441,22.3324947 C1.28789427,22.3332382 0.972085823,22.1136565 0.846825211,21.7810111 C0.721564598,21.4483656 0.812990977,21.0720722 1.07644438,20.8359426 L23.4394101,1.00762474 C23.7607619,0.723769341 24.2402036,0.723769341 24.5615555,1.00762474 L30.4407287,6.22460543 C30.5572206,6.32668966 30.7218391,6.35088106 30.8622613,6.28655146 C31.0026835,6.22222185 31.0932141,6.08114259 31.0940798,5.925295 L31.0940798,3.07286666 C31.0966364,2.53627885 31.5217091,2.09948849 32.052394,2.08813537 L37.9601883,2.08813537 C38.4875409,2.09959316 38.9065902,2.53971268 38.8977768,3.07286666 L38.8977768,13.5487315 C38.8979204,13.6633583 38.946814,13.7723883 39.032,13.8480419 L46.927482,20.8319518 C47.1955308,21.0658842 47.2891652,21.4449069 47.1613856,21.7787705 L47.1613856,21.7807659 Z" id="Path_527"></path>
                </g>
            </g>
        </g>
    </g>
</svg>