<?xml version="1.0" encoding="UTF-8"?>
<svg width="73px" height="73px" viewBox="0 0 73 73" version="1.1" xmlns="http://www.w3.org/2000/svg" xmlns:xlink="http://www.w3.org/1999/xlink">
    <title>Icon-Menu--Tutors</title>
    <g id="Icon-Menu--Tutors" stroke="none" stroke-width="1" fill="none" fill-rule="evenodd">
        <g id="Artboard-–-7" transform="translate(8.000000, 12.000000)" fill-rule="nonzero">
            <g id="Component_51_3">
                <ellipse id="Ellipse_57" fill="#FFFFFF" cx="43.5545939" cy="38.1511512" rx="11.4178038" ry="10.5105105"></ellipse>
                <g id="Group_554">
                    <g id="g9218" transform="translate(0.000000, 22.439439)">
                        <path d="M16.8448759,0.002002002 C12.583553,1.5955956 7.39887719,3.39139139 4.18004938,6.7037037 C1.94414555,9.00600601 -0.05446654,12.1611612 0.00113320011,15.5285285 C0.0428330052,18.0760761 3.23088239,18.6626627 5.15105913,19.3323323 C10.4399844,21.1871872 16.0873294,21.7607608 23.1991319,21.7607608 C25.6931774,21.7607608 28.0065237,21.6896897 30.1878207,21.5185185 C27.3201693,14.5924341 29.9823613,6.59595226 36.4139987,2.81681682 C34.1304379,1.75475475 31.6929851,0.940940941 29.4560884,0.107107107 C28.6683873,1.00282527 27.7295375,1.75078341 26.6830513,2.31631632 C24.7558788,3.39972301 22.4399392,3.52315959 20.4102092,2.65065065 C19.0370302,2.05192441 17.8173403,1.14539715 16.843883,0 L16.8448759,0.002002002 Z" id="path9214" fill="#FFFFFF"></path>
                        <path d="M43.3024094,2.95695696 C36.2897237,2.95695696 30.6048187,8.68851885 30.6048187,15.7587588 C30.6048187,22.8289987 36.2897237,28.5605606 43.3024094,28.5605606 C50.315095,28.5605606 56,22.8289987 56,15.7587588 C56,8.68851885 50.315095,2.95695696 43.3024094,2.95695696 Z M43.3024094,6.46746204 C43.9139813,6.46613487 44.5008854,6.71048492 44.9333331,7.14648177 C45.3657808,7.58247862 45.6081418,8.17419958 45.60682,8.79079079 L45.60682,13.4374374 L50.2146485,13.4374374 C51.0491587,13.4199706 51.8278,13.8588383 52.2501366,14.5847049 C52.6724731,15.3105716 52.6724731,16.2099489 52.2501366,16.9358156 C51.8278,17.6616823 51.0491587,18.1005499 50.2146485,18.0830831 L45.60682,18.0830831 L45.60682,22.7277277 C45.6241447,23.5690869 45.1888495,24.3541187 44.4688917,24.7799214 C43.7489338,25.2057241 42.8568777,25.2057241 42.1369199,24.7799214 C41.416962,24.3541187 40.9816669,23.5690869 40.9989916,22.7277277 L40.9989916,18.0830831 L36.3911631,18.0830831 C35.1373825,18.0568407 34.1345823,17.0246032 34.1345823,15.7602603 C34.1345823,14.4959174 35.1373825,13.4636799 36.3911631,13.4374374 L40.9989916,13.4374374 L40.9989916,8.79079079 C40.9974053,8.1742918 41.2395449,7.58256768 41.6718351,7.14654168 C42.1041254,6.71051568 42.6909283,6.46613386 43.3024094,6.46746204 L43.3024094,6.46746204 Z" id="path9189" fill="#7DD577"></path>
                    </g>
                    <ellipse id="Ellipse_56" fill="#FFFFFF" cx="23.1425393" cy="11.8688689" rx="11.7722521" ry="11.8688689"></ellipse>
                </g>
            </g>
        </g>
    </g>
</svg>