<?xml version="1.0" encoding="UTF-8"?>
<svg width="73px" height="73px" viewBox="0 0 73 73" version="1.1" xmlns="http://www.w3.org/2000/svg" xmlns:xlink="http://www.w3.org/1999/xlink">
    <title>Icon-Menu--Message</title>
    <g id="Icon-Menu--Message" stroke="none" stroke-width="1" fill="none" fill-rule="evenodd">
        <g id="mail-01" transform="translate(12.000000, 21.000000)">
            <path d="M48.9869331,28.143805 C49.0120992,28.3543883 48.9774758,28.5677341 48.8869312,28.7600062 C48.7070484,29.5202519 48.3148575,30.2154434 47.7549096,30.7666101 L47.7549096,30.7666101 C46.9607662,31.5553232 45.8811746,31.9991672 44.7548525,32 L4.24508089,32 C2.27282243,31.9935245 0.562927966,30.6510651 0.112002163,28.7550687 C0.0195680532,28.5633725 -0.0151429711,28.3494868 0.0120002588,28.1388675 C-7.82273808e-16,28.0282672 -7.82273808e-16,27.913717 -7.82273808e-16,27.8031168 L-7.82273808e-16,4.1958957 C-7.82273808e-16,3.11727165 0.422371675,2.08043023 1.17902249,1.30251504 L1.24402373,1.23338991 C2.03835545,0.44495365 3.11782505,0.00115980009 4.24408087,0 L44.7558525,0 C45.8813671,0 46.9606947,0.441919581 47.7559096,1.2284524 L47.7559096,1.2284524 C48.5524122,2.01371377 49,3.07953149 49,4.19095819 L49,27.7981793 C49.0006,27.9133879 48.9962666,28.0285964 48.9869331,28.143805 Z" id="Path_417"></path>
            <polygon id="Path_418" fill="#D2D9DB" points="13.6962609 17.4856967 2.31604414 8.99120506 2.31604414 25.9851258"></polygon>
            <path d="M33.390636,18.9215245 L27.0625155,23.6477087 C25.5547614,24.7952894 23.4531721,24.7952894 21.945418,23.6477087 L15.6112974,18.9215245 L2.54004841,28.686931 C2.6330675,28.8567583 2.74914264,29.0132425 2.88505498,29.1520444 C3.24652985,29.5107888 3.73759306,29.7129262 4.25008098,29.7139427 L44.7608526,29.7139427 C45.2728844,29.7155448 45.7643352,29.5150255 46.1258786,29.1569819 L46.1258786,29.1569819 C46.2657464,29.0215172 46.3822812,28.8644133 46.4708852,28.6918685 L33.390636,18.9215245 Z" id="Path_419" fill="#E6EEF0"></path>
            <polygon id="Path_420" fill="#D2D9DB" points="46.6848892 8.99120506 35.3096726 17.4837216 46.6848892 25.9831507"></polygon>
            <path d="M2.31604414,6.12349946 L16.2913103,16.5604073 L16.3333111,16.5929949 L23.3334445,21.8208301 C24.0182542,22.3483903 24.9786791,22.3483903 25.6634888,21.8208301 L32.6636222,16.5929949 L32.705623,16.5604073 L46.684899,6.12349946 L46.684899,4.19095819 C46.6865215,3.68533539 46.4834605,3.200036 46.1208785,2.84301805 L46.1208785,2.84301805 C45.757267,2.48199553 45.2624815,2.27965998 44.7468523,2.28112151 L4.24608091,2.28112151 C3.73359299,2.28213627 3.24252977,2.48427368 2.88105491,2.84301805 L2.83405401,2.88943064 C2.50005097,3.24275625 2.31514072,3.70860497 2.31704416,4.19194569 L2.31604414,6.12349946 Z" id="Path_421" fill="#FFFFFF"></path>
        </g>
    </g>
</svg>