<svg width="80" height="69" viewBox="0 0 80 69" fill="none" xmlns="http://www.w3.org/2000/svg">
<path d="M60.024 61.346C60.0152 62.5151 59.0641 63.4577 57.895 63.456L21.112 63.291C19.9424 63.2827 18.9989 62.3316 19 61.162L19.237 12.394C19.2458 11.2249 20.1969 10.2823 21.366 10.284L58.15 10.449C59.3191 10.4578 60.2617 11.4089 60.26 12.578L60.024 61.346Z" fill="#A2A9B3"/>
<path d="M51.392 61.597H24.342C23.212 61.5643 22.3195 60.6272 22.342 59.497V16.439C22.3195 15.3088 23.212 14.3717 24.342 14.339H56.615C57.7449 14.3717 58.6374 15.3088 58.615 16.439V54.047C56.209 56.5657 53.8013 59.0823 51.392 61.597Z" fill="#5A6572"/>
<path d="M50.685 60.606H23.636C22.5061 60.5733 21.6136 59.6362 21.636 58.506V15.448C21.6136 14.3178 22.5061 13.3807 23.636 13.348H55.909C57.039 13.3807 57.9315 14.3178 57.909 15.448V53.056C55.5017 55.574 53.0937 58.0907 50.685 60.606Z" fill="white"/>
<path d="M55.122 56.035C53.6627 57.559 52.203 59.0827 50.743 60.606V55.258C50.7184 54.1046 51.6288 53.1472 52.782 53.114H57.913C56.9857 54.09 56.0554 55.0637 55.122 56.035Z" fill="white"/>
<path d="M51.874 10.591H28.644C27.9302 11.1744 27.5144 12.0461 27.51 12.968C27.502 14.674 27.5 15.219 27.5 15.219L53.109 15.334C53.109 15.334 53.109 14.791 53.119 13.083C53.1243 12.1015 52.662 11.1761 51.874 10.591Z" fill="#5A6572"/>
<path d="M49.476 9.556C43.436 9.529 43.195 7.848 43.113 7.551C42.7027 6.05403 41.3481 5.01162 39.796 4.99837C38.2439 4.98512 36.8718 6.00425 36.436 7.494C36.348 7.794 35.836 9.494 30.048 9.467C29.2282 9.46354 28.4406 9.78589 27.8585 10.3631C27.2764 10.9404 26.9474 11.7252 26.944 12.545C26.936 14.251 26.934 14.796 26.934 14.796L52.543 14.911C52.543 14.911 52.543 14.368 52.553 12.66C52.5569 11.8402 52.2349 11.0525 51.6578 10.4703C51.0806 9.88808 50.2957 9.55917 49.476 9.556ZM39.78 5.82C40.5284 5.82553 41.1309 6.43648 41.1259 7.18496C41.1209 7.93344 40.5104 8.53634 39.762 8.53196C39.0135 8.52753 38.4101 7.91749 38.4139 7.169C38.4158 6.80884 38.5609 6.46421 38.8171 6.21114C39.0734 5.95807 39.4198 5.81734 39.78 5.82Z" fill="white"/>
<path d="M26.9401 13.557C26.9401 14.474 26.9351 14.796 26.9351 14.796L52.5441 14.911C52.5441 14.911 52.5441 14.59 52.5491 13.672L26.9401 13.557Z" fill="#DEEDFC"/>
<path d="M48.65 22.951V18.27H53.333V22.953H48.65V22.951ZM52.675 22.295V18.926H49.307V22.29H52.675V22.295Z" fill="#A2A9B3"/>
<path d="M53.152 22.769H48.832V18.452H53.152V22.769ZM49.127 22.477H52.86V18.744H49.127V22.477Z" fill="#A2A9B3"/>
<path d="M39.165 18.956C39.1542 19.247 38.9101 19.4746 38.619 19.465H26.702C26.4109 19.4746 26.1669 19.247 26.156 18.956C26.1669 18.665 26.4109 18.4374 26.702 18.447H38.619C38.9103 18.4369 39.1547 18.6647 39.165 18.956Z" fill="#A2A9B3"/>
<path d="M45.509 20.406C45.502 20.6013 45.3384 20.7542 45.143 20.748H26.552C26.3567 20.7542 26.1931 20.6013 26.186 20.406C26.1931 20.2107 26.3567 20.0578 26.552 20.064H45.146C45.3418 20.0572 45.506 20.2103 45.513 20.406H45.509Z" fill="#BCAFAF"/>
<path d="M45.509 21.604C45.502 21.7993 45.3384 21.9522 45.143 21.946H26.552C26.3567 21.9522 26.1931 21.7993 26.186 21.604C26.1931 21.4087 26.3567 21.2558 26.552 21.262H45.146C45.3416 21.2558 45.5054 21.4085 45.513 21.604H45.509Z" fill="#BCAFAF"/>
<path d="M36.1171 22.791C36.11 22.9863 35.9464 23.1392 35.7511 23.133H26.5511C26.3557 23.1392 26.1921 22.9863 26.1851 22.791C26.1921 22.5957 26.3557 22.4428 26.5511 22.449H35.7511C35.9466 22.4428 36.1095 22.5955 36.1171 22.791Z" fill="#BCAFAF"/>
<path d="M48.65 31.321V26.638H53.333V31.321H48.65ZM52.675 30.663V27.296H49.307V30.663H52.675Z" fill="#A2A9B3"/>
<path d="M53.152 31.138H48.832V26.822H53.152V31.138ZM49.127 30.847H52.86V27.112H49.127V30.847Z" fill="#A2A9B3"/>
<path d="M39.165 27.324C39.1542 27.615 38.9101 27.8426 38.619 27.833H26.702C26.4109 27.8426 26.1669 27.615 26.156 27.324C26.1669 27.033 26.4109 26.8054 26.702 26.815H38.619C38.9101 26.8054 39.1542 27.033 39.165 27.324Z" fill="#A2A9B3"/>
<path d="M45.509 28.774C45.502 28.9693 45.3384 29.1222 45.143 29.116H26.552C26.3567 29.1222 26.1931 28.9693 26.186 28.774C26.1931 28.5787 26.3567 28.4258 26.552 28.432H45.146C45.3416 28.4258 45.5054 28.5785 45.513 28.774H45.509Z" fill="#BCAFAF"/>
<path d="M45.509 29.973C45.502 30.1683 45.3384 30.3212 45.143 30.315H26.552C26.3567 30.3212 26.1931 30.1683 26.186 29.973C26.1931 29.7777 26.3567 29.6248 26.552 29.631H45.146C45.3418 29.6243 45.506 29.7773 45.513 29.973H45.509Z" fill="#BCAFAF"/>
<path d="M36.1171 31.161C36.11 31.3563 35.9464 31.5092 35.7511 31.503H26.5511C26.3557 31.5092 26.1921 31.3563 26.1851 31.161C26.1882 31.0672 26.2285 30.9785 26.2972 30.9145C26.3659 30.8505 26.4573 30.8165 26.5511 30.82H35.7511C35.845 30.8162 35.9366 30.8501 36.0055 30.9141C36.0744 30.9781 36.1139 31.067 36.1171 31.161Z" fill="#BCAFAF"/>
<path d="M48.65 39.607V34.924H53.333V39.607H48.65ZM52.675 38.951V35.583H49.307V38.951H52.675Z" fill="#A2A9B3"/>
<path d="M53.152 39.425H48.832V35.109H53.152V39.425ZM49.127 39.133H52.86V35.398H49.127V39.133Z" fill="#A2A9B3"/>
<path d="M39.165 35.611C39.1542 35.902 38.9101 36.1296 38.619 36.12H26.702C26.4109 36.1296 26.1669 35.902 26.156 35.611C26.1669 35.32 26.4109 35.0924 26.702 35.102H38.619C38.9103 35.0919 39.1547 35.3197 39.165 35.611Z" fill="#A2A9B3"/>
<path d="M45.509 37.062C45.502 37.2573 45.3384 37.4102 45.143 37.404H26.552C26.3567 37.4102 26.1931 37.2573 26.186 37.062C26.1931 36.8667 26.3567 36.7138 26.552 36.72H45.146C45.3418 36.7132 45.506 36.8663 45.513 37.062H45.509Z" fill="#BCAFAF"/>
<path d="M45.509 38.257C45.502 38.4523 45.3384 38.6052 45.143 38.599H26.552C26.3567 38.6052 26.1931 38.4523 26.186 38.257C26.1931 38.0617 26.3567 37.9088 26.552 37.915H45.146C45.3418 37.9082 45.506 38.0613 45.513 38.257H45.509Z" fill="#BCAFAF"/>
<path d="M36.1171 39.447C36.11 39.6423 35.9464 39.7952 35.7511 39.789H26.5511C26.3557 39.7952 26.1921 39.6423 26.1851 39.447C26.1882 39.3532 26.2285 39.2645 26.2972 39.2005C26.3659 39.1365 26.4573 39.1025 26.5511 39.106H35.7511C35.845 39.1025 35.9364 39.1364 36.0052 39.2004C36.0741 39.2644 36.1137 39.3531 36.1171 39.447Z" fill="#BCAFAF"/>
<path d="M39.8896 45.7562C39.6084 46.1606 39.3503 46.5806 39.1167 47.0142C40.0041 48.8668 39.8835 51.0445 38.7967 52.7877C37.71 54.5309 35.8079 55.598 33.7538 55.6169H33.7037C30.3842 55.6324 27.6807 52.9539 27.6652 49.6344C27.6497 46.3149 30.3282 43.6114 33.6477 43.5959H33.6978C34.853 43.5955 35.9835 43.9295 36.9529 44.5578C37.206 44.2074 37.4846 43.8762 37.7864 43.5668C36.5809 42.7473 35.1566 42.3098 33.699 42.3112H33.6372C29.6122 42.3535 26.3799 45.6437 26.409 49.6688C26.4511 53.6696 29.7038 56.8921 33.7048 56.897H33.7666C36.4053 56.8765 38.8269 55.4317 40.0982 53.1193C41.3694 50.807 41.2919 47.9882 39.8954 45.7492L39.8896 45.7562Z" fill="#60C967"/>
<path d="M34.0802 52.9903C33.9864 53.0079 33.8912 53.0169 33.7957 53.0171C33.4482 53.0545 33.1001 52.9522 32.8281 52.7326L29.3073 49.6909C29.1255 49.5323 29.0199 49.3038 29.017 49.0626C29.0193 48.6708 29.1785 48.2963 29.4588 48.0226C29.6134 47.8583 29.8142 47.7449 30.0347 47.6974C30.3696 47.6469 30.7086 47.7571 30.9499 47.9947L33.6419 50.2832L36.5728 46.1841C36.5809 46.1689 38.4195 43.5878 39.2379 43.4339C39.3155 43.4175 39.3962 43.4228 39.471 43.449C39.588 43.4929 39.6779 43.5885 39.7147 43.7079C39.9479 44.4074 38.5815 46.6644 38.5687 46.6877L34.9896 52.4085C34.7808 52.7188 34.4537 52.9296 34.0849 52.9914L34.0802 52.9903Z" fill="#60C967"/>
</svg>
