<?xml version="1.0" encoding="UTF-8"?>
<svg width="73px" height="73px" viewBox="0 0 73 73" version="1.1" xmlns="http://www.w3.org/2000/svg" xmlns:xlink="http://www.w3.org/1999/xlink">
    <title>Icon-Menu--Planning</title>
    <g id="Icon-Menu--Planning" stroke="none" stroke-width="1" fill="none" fill-rule="evenodd">
        <g id="Artboard-–-5" transform="translate(11.000000, 11.000000)" fill-rule="nonzero">
            <g id="Artboard_5" transform="translate(0.000000, -0.000000)">
                <g id="Component_50_3" transform="translate(0.000000, -0.000000)">
                    <rect id="Rectangle_238" fill="#FFFFFF" x="2.99502797" y="5.99093204" width="39.8147357" height="36.9672027"></rect>
                    <g id="Group_551">
                        <rect id="Rectangle_235" fill="#D99289" x="6.66893271" y="19.9395568" width="7.68922083" height="5.64998733" rx="1.30779"></rect>
                        <rect id="Rectangle_236" fill="#D99289" x="17.2984718" y="19.9395568" width="7.68922083" height="5.64998733" rx="1.30779"></rect>
                        <path d="M35.3066767,21.0605623 L35.3066767,23.4584349 C34.7118321,23.5489536 34.1223591,23.672028 33.5408932,23.8271078 C32.1342939,24.2024471 30.7951382,24.7971697 29.5723594,25.5895442 L29.0448142,25.5895442 C28.4289276,25.5873519 27.9301948,25.0867426 27.9280108,24.4685387 L27.9280108,21.0615614 C27.9296457,20.4433554 28.4279341,19.9422998 29.0438188,19.9395568 L34.188878,19.9395568 C34.8051532,19.9412011 35.3044896,20.44197 35.3066767,21.0605623 Z" id="Path_786" fill="#D99289"></path>
                        <rect id="Rectangle_237" fill="#D99289" x="6.66893271" y="29.5949905" width="7.68922083" height="5.64998733" rx="1.30779"></rect>
                        <path d="M24.9876926,30.715996 L24.9876926,31.5602469 C24.4836213,32.7341044 24.1426695,33.9719317 23.9744076,35.2389832 C23.9399015,35.2423136 23.9067225,35.2439787 23.8748707,35.2439787 L18.7248347,35.2439787 C18.1089481,35.2417865 17.6102153,34.7411772 17.6080313,34.1229733 L17.6080313,30.715996 C17.6091228,30.0970119 18.1081738,29.5951902 18.7248347,29.5929923 L23.8698939,29.5929923 C24.4869436,29.5946415 24.9865988,30.0966233 24.9876926,30.715996 L24.9876926,30.715996 Z" id="Path_787" fill="#D99289"></path>
                        <g id="Group_549" fill="#A2A9B3">
                            <path d="M30.6354128,7.58251998 C30.6354128,7.68243134 30.6354128,7.7823427 30.6354128,7.88225406 C30.6422805,8.41793499 30.900527,8.91896658 31.3321707,9.23405474 C31.8857278,9.7026819 32.6630014,9.79834441 33.3129538,9.47783846 C34.0572488,9.14787749 34.5123796,8.38166317 34.4476738,7.56753328 C34.4556367,5.7451501 34.4539778,3.92309995 34.4426969,2.10138285 C34.4400084,1.80658331 34.3888901,1.51424804 34.2914009,1.23615048 C33.9877309,0.424531124 33.176698,-0.0791913764 32.3175854,0.010238112 C31.3991452,0.0990825134 30.68512,0.851544834 30.6413851,1.77667093 C30.6165008,2.47605044 30.6214777,3.17043439 30.6274499,3.86881478 C25.642645,3.88380149 14.3820424,3.90578199 14.180978,3.92276692 C14.180978,4.15356216 14.180978,4.33040526 14.180978,4.50824748 C14.1760011,5.53333802 14.1929224,6.55842856 14.1690335,7.58251998 L30.6354128,7.58251998 Z" id="Path_788"></path>
                            <path d="M43.2716146,24.7313056 C43.2716146,19.3187742 43.2716146,13.9055768 43.2716146,8.49171335 C43.2716146,8.36482592 43.2716146,8.23693938 43.2626563,8.11005196 C43.1673373,5.82406634 41.519332,3.90353304 39.2811827,3.47016846 C38.5429755,3.37086396 37.7981511,3.32977455 37.0535482,3.34727749 C36.3826699,3.32929345 36.555864,3.34727749 35.8272544,3.34727749 L35.8272544,3.84983163 C35.8272544,4.72705335 35.8362127,5.60227686 35.8272544,6.47949858 C35.8272544,6.49748263 35.8272544,6.51646579 35.8272544,6.53544895 L38.0429444,6.53544895 C38.5735287,6.47241305 39.1036402,6.65685437 39.4815358,7.03597702 C39.8594314,7.41509967 40.0434537,7.94711097 39.9809267,8.47972398 L39.9809267,11.7028644 L3.30657828,11.7028644 L3.30657828,8.47872487 C3.24383842,7.94633851 3.42746366,7.41443145 3.80492718,7.03515808 C4.1823907,6.6558847 4.7121149,6.47102198 5.2425698,6.53345072 L9.91482903,6.53345072 C9.917613,6.76045328 9.95280903,6.98588248 10.0193427,7.20285682 C10.2663169,7.96139283 11.0258597,8.42730434 11.8110058,8.30188177 C12.5677317,8.20741396 13.146789,7.57978024 13.1826235,6.81520075 C13.2154706,5.92598966 13.1905864,5.03478034 13.1905864,4.14357102 C13.1905864,3.2673484 13.2124845,2.39012668 13.1836188,1.51490317 C13.1536552,0.827173376 12.6772194,0.240866065 12.0120702,0.073182268 C11.4858932,-0.0771546826 10.9197033,0.042675391 10.4987908,0.393457125 C10.0778783,0.744238859 9.85641108,1.28082962 9.90686609,1.82762573 C9.90354819,2.33184505 9.90155745,2.83606437 9.90089387,3.3402837 C9.19418232,3.3402837 7.13277438,3.33129167 6.62215039,3.3402837 C5.79147989,3.3103501 4.95974124,3.34207509 4.13372941,3.43519949 C1.67681356,3.83800637 -0.0949835093,6.01682797 0.00394595665,8.51369385 C0.000628062006,18.4229024 0.000628062006,28.332444 0.00394595665,38.2423186 C-0.04225003,39.6272976 0.485390993,40.9695709 1.46131168,41.9497316 C2.43723237,42.9298923 3.77416813,43.4602966 5.15398202,43.4147297 C11.8640921,43.4147297 18.574534,43.4147297 25.2853077,43.4147297 C24.8998632,42.4804146 24.6178103,41.5064349 24.4442214,40.5103065 C24.421328,40.3754261 24.3994299,40.2405458 24.3795225,40.110661 L5.2425698,40.110661 C4.7121149,40.1730898 4.1823907,39.988227 3.80492718,39.6089537 C3.42746366,39.2296803 3.24383842,38.6977732 3.30657828,38.1653869 C3.30657828,33.2184425 3.30657828,28.2714981 3.30657828,23.3245537 C3.30657828,20.3565202 3.30657828,17.3888198 3.30657828,14.4214525 L39.9739591,14.4214525 C39.9739591,17.3881538 39.9739591,20.3558542 39.9739591,23.3245537 L39.9739591,23.9240218 C41.1038297,24.0459977 42.2126639,24.3174463 43.2716146,24.7313056 Z" id="Path_789"></path>
                        </g>
                    </g>
                    <g id="Group_552" transform="translate(23.731538, 22.625174)">
                        <path d="M28.2684623,14.1874129 C28.2684623,22.0229047 21.9403515,28.3748259 14.1342312,28.3748259 C6.32811084,28.3748259 0,22.0229047 0,14.1874129 C0,6.35192113 6.32811084,8.87391126e-16 14.1342312,8.87391126e-16 C21.9403515,8.87391126e-16 28.2684623,6.35192113 28.2684623,14.1874129 Z" id="Path_140" fill="#7DD577"></path>
                        <g id="Group_69" transform="translate(4.108881, 8.133784)" fill="#FFFFFF">
                            <polygon id="Path_141" points="10.8624553 12.1302381 7.94801661 15.0466506 0 7.07272508 2.91443865 4.1473205 7.94801661 9.20882993"></polygon>
                            <polygon id="Path_142" points="20.0377611 2.94438774 10.8624553 12.1362327 7.94801661 15.0526453 5.04253627 12.1352336 7.94801661 9.20982904 17.1133688 0"></polygon>
                        </g>
                    </g>
                </g>
            </g>
        </g>
    </g>
</svg>