<?xml version="1.0" encoding="UTF-8"?>
<svg width="73px" height="73px" viewBox="0 0 73 73" version="1.1" xmlns="http://www.w3.org/2000/svg" xmlns:xlink="http://www.w3.org/1999/xlink">
    <title>Icon-Menu--Progress</title>
    <defs>
        <rect id="path-1" x="0" y="0" width="43.2240547" height="35.0249502"></rect>
        <rect id="path-3" x="0" y="0" width="43.2240547" height="35.0249502"></rect>
        <rect id="path-5" x="0" y="0" width="11.2869906" height="20.163232"></rect>
        <rect id="path-7" x="0" y="0" width="11.3950753" height="8.42799658"></rect>
        <rect id="path-9" x="0" y="0" width="11.1671148" height="12.6866873"></rect>
        <rect id="path-11" x="0" y="0" width="11.2869906" height="18.9207828"></rect>
        <rect id="path-13" x="0" y="0" width="11.2869906" height="9.51253255"></rect>
    </defs>
    <g id="Icon-Menu--Progress" stroke="none" stroke-width="1" fill="none" fill-rule="evenodd">
        <g id="progress-38" transform="translate(12.000000, 13.000000)">
            <path d="M48.8159642,7.32787893 L42.8280717,0.263497628 C42.686384,0.0962624356 42.4794409,-2.36894118e-16 42.2616096,-2.36894118e-16 C42.0437783,-2.36894118e-16 41.8368351,0.0962624356 41.6951475,0.263497628 L35.707255,7.32787893 C35.5175549,7.55051557 35.4735537,7.86445028 35.5946073,8.13158498 C35.715661,8.39871968 35.979584,8.57009664 36.2702781,8.5703281 L40.5445367,8.5703281 L40.5445367,11.8845191 C40.5439956,12.2490513 40.2517657,12.5444267 39.8911156,12.5449737 L25.055999,12.5449737 C24.6953488,12.5455206 24.403119,12.8408961 24.4025778,13.2054283 L24.4025778,21.3910926 C24.4014987,21.7553989 24.1095833,22.0504565 23.7491567,22.0515472 L8.89537094,22.0515472 C8.53472077,22.0520942 8.2424909,22.3474696 8.24194979,22.7120018 L8.24194979,30.902632 C8.24140867,31.2671642 7.9491788,31.5625397 7.58852864,31.5630866 L0.65342115,31.5630866 C0.292419892,31.5737217 0.00406456141,31.8704403 7.47261046e-17,32.2354592 L7.47261046e-17,34.3687772 C0.000541111435,34.7333094 0.292770987,35.0286849 0.65342115,35.0292318 L11.0049878,35.0292318 C11.365638,35.0286849 11.6578678,34.7333094 11.6584089,34.3687772 L11.6584089,26.1771539 C11.6594881,25.8128476 11.9514035,25.51779 12.3118301,25.5166993 L27.1597203,25.5166993 C27.5203705,25.5161523 27.8126004,25.2207769 27.8131415,24.8562447 L27.8131415,16.6646213 C27.8136826,16.3000891 28.1059125,16.0047136 28.4665626,16.0041667 L43.3134703,16.0041667 C43.6741204,16.0036198 43.9663503,15.7082443 43.9668914,15.3437121 L43.9668914,8.5703281 L48.2450804,8.5703281 C48.5376968,8.57434214 48.8055222,8.40478097 48.9296593,8.13691884 C49.0537965,7.8690567 49.011238,7.55253889 48.8208771,7.32787893" id="Path_173" stroke="#030303" stroke-width="0.99" fill="#F5DDA7" fill-rule="nonzero"></path>
            <g id="Group_85" transform="translate(0.000000, 0.003288)">
                <g id="Group_83-Clipped">
                    <mask id="mask-2" fill="white">
                        <use xlink:href="#path-1"></use>
                    </mask>
                    <g id="Rectangle_66"></g>
                    <g id="Group_83" mask="url(#mask-2)" fill="#FFFFFF" fill-rule="nonzero">
                        <g transform="translate(35.532887, 0.002671)" id="Path_174">
                            <path d="M0.743286956,8.56436911 L1.1805387,8.56436911 C1.16188074,8.36618119 1.22478458,8.16897249 1.35445681,8.01912163 L7.34333187,0.954740336 C7.43331431,0.847463599 7.55259664,0.769389155 7.68625515,0.730285089 L7.29321987,0.263497628 C7.15153223,0.0962624356 6.94458911,3.44573262e-16 6.72675777,3.44573262e-16 C6.50892644,3.44573262e-16 6.30198332,0.0962624356 6.16029568,0.263497628 L0.174368391,7.32787893 C-0.0117121113,7.55170648 -0.0525441141,7.86427168 0.0696816016,8.1292466 C0.191907317,8.39422151 0.455023391,8.56354919 0.744269544,8.56337595"></path>
                        </g>
                    </g>
                </g>
                <g id="Group_84-Clipped">
                    <mask id="mask-4" fill="white">
                        <use xlink:href="#path-3"></use>
                    </mask>
                    <g id="Rectangle_66"></g>
                    <g id="Group_84" mask="url(#mask-4)" fill="#FFFFFF" fill-rule="nonzero">
                        <g transform="translate(-0.000008, 8.590876)" id="Path_175">
                            <path d="M1.17911359,24.3375037 C1.1796547,23.9729715 1.47188457,23.677596 1.83253474,23.6770491 L8.75781634,23.6770491 C9.1184665,23.6765021 9.41069638,23.3811267 9.41123749,23.0165945 L9.41123749,14.8319233 C9.4117786,14.4673911 9.70400848,14.1720156 10.0646586,14.1714687 L24.9115663,14.1714687 C25.2722164,14.1709217 25.5644463,13.8755463 25.5649874,13.5110141 L25.5649874,5.32534971 C25.5655285,4.9608175 25.8577584,4.66544205 26.2184086,4.66489511 L41.0653162,4.66489511 C41.4259664,4.66434818 41.7181963,4.36897273 41.7187374,4.00444052 L41.7187374,0 L40.5396315,0 L40.5396315,3.31419097 C40.5390904,3.67872319 40.2468605,3.97409864 39.8862104,3.97464557 L25.0560067,3.97464557 C24.6953566,3.97519251 24.4031267,4.27056796 24.4025856,4.63510017 L24.4025856,12.8207645 C24.4015065,13.1850708 24.109591,13.4801284 23.7491644,13.4812191 L8.89537869,13.4812191 C8.53472852,13.4817661 8.24249865,13.7771415 8.24195754,14.1416737 L8.24195754,22.3332971 C8.24141643,22.6978293 7.94918655,22.9932048 7.58853639,22.9937517 L0.653428901,22.9937517 C0.481080568,22.9894536 0.314353791,23.0558718 0.191250703,23.1778675 C0.0681476145,23.2998632 -0.000841621856,23.4670408 -1.39088735e-15,23.6412951 L-1.39088735e-15,25.77362 C0.000548862491,26.1381522 0.292778738,26.4335277 0.653428901,26.4340746 L1.17911359,26.4340746 L1.17911359,24.3375037 Z"></path>
                        </g>
                    </g>
                </g>
            </g>
            <path d="M43.3193658,19.4574008 L32.9677991,19.4574008 C32.6073725,19.4584915 32.3154571,19.7535491 32.314378,20.1178554 L32.314378,47.3305712 C32.3154571,47.6948774 32.6073725,47.989935 32.9677991,47.9910258 L43.3193658,47.9910258 C43.6797924,47.989935 43.9717078,47.6948774 43.9727869,47.3305712 L43.9727869,20.1178554 C43.9717078,19.7535491 43.6797924,19.4584915 43.3193658,19.4574008" id="Path_176" fill="#E5E3E3" fill-rule="nonzero"></path>
            <g id="Group_87-Clipped" transform="translate(32.314378, 19.457401)">
                <mask id="mask-6" fill="white">
                    <use xlink:href="#path-5"></use>
                </mask>
                <g id="Rectangle_68"></g>
                <g id="Group_87" mask="url(#mask-6)" fill="#FFFFFF" fill-rule="nonzero">
                    <g transform="translate(0.000000, 0.002977)" id="Path_177">
                        <path d="M2.25995285,12.4016518 C4.23476219,7.61244547 7.33048306,3.37949502 11.2810951,0.066544884 C11.1934956,0.0224918928 11.0969347,-0.000292851233 10.9990923,0 L0.65342115,0 C0.29299455,0.00109358625 0.00107912881,0.296151195 0,0.660457441 L0,20.1542963 C0.444906264,17.4876294 1.20360677,14.8842821 2.25995285,12.3996655"></path>
                    </g>
                </g>
            </g>
            <g id="Group_90-Clipped" transform="translate(0.000000, 38.487432)">
                <mask id="mask-8" fill="white">
                    <use xlink:href="#path-7"></use>
                </mask>
                <g id="Rectangle_69"></g>
                <g id="Group_90" mask="url(#mask-8)" fill="#FFFFFF" fill-rule="nonzero">
                    <g transform="translate(0.000000, -0.000022)" id="Path_178">
                        <path d="M0.856816907,7.13690446 C3.33384101,3.50358976 7.11585097,0.990743102 11.3980231,0.133106219 C11.2853642,0.045676685 11.1470181,-0.00116813156 11.0049878,0 L0.65342115,0 C0.29299455,0.00111287907 0.00107912881,0.296170488 0,0.660476733 L0,8.42205973 C0.270211754,7.99201936 0.551231978,7.561979 0.856816907,7.13789763"></path>
                    </g>
                </g>
            </g>
            <g id="Group_93-Clipped" transform="translate(16.153750, 28.969933)">
                <mask id="mask-10" fill="white">
                    <use xlink:href="#path-9"></use>
                </mask>
                <g id="Rectangle_70"></g>
                <g id="Group_93" mask="url(#mask-10)" fill="#FFFFFF" fill-rule="nonzero">
                    <g transform="translate(0.005896, 0.000000)" id="Path_179">
                        <path d="M11.1612193,0.0238359555 C11.1081929,0.00996704307 11.0538303,0.0019746345 10.9990923,0 L0.65342115,0 C0.292770987,0.000546935978 0.000541111435,0.295922385 0,0.660454599 L0,12.6866873 C2.25150722,7.34640732 6.17181419,2.89866169 11.1612193,0.0238359555"></path>
                    </g>
                </g>
            </g>
            <path d="M11.6643045,38.7059279 L11.6643045,47.775509 C11.6643045,47.8966751 11.369528,47.9999935 11.0049878,47.9999935 L0.65342115,47.9999935 C0.294776459,48.0019506 0,47.9026341 0,47.775509 L0,38.7059279 C0,38.5847618 0.294776459,38.4874317 0.65342115,38.4874317 L10.9990923,38.4874317 C11.3646151,38.4874317 11.6643045,38.5867482 11.6643045,38.7059279" id="Path_180" fill="#F4A4A4" fill-rule="nonzero"></path>
            <path d="M27.8180544,29.4118917 L27.8180544,47.5580059 C27.8180544,47.8003381 27.523278,48 27.1646333,48 L16.8130666,48 C16.6642885,48.0013275 16.5177011,47.9636874 16.3876059,47.8907161 C16.2546487,47.8316901 16.1647252,47.7033727 16.1537499,47.5570127 L16.1537499,29.4118917 C16.1537499,29.1695594 16.4485264,28.9699333 16.8071711,28.9699333 L27.1587377,28.9699333 C27.1827984,28.9689509 27.2068876,28.9709521 27.2304667,28.9758923 C27.5606163,28.9997283 27.8200196,29.1884296 27.8200196,29.4118917" id="Path_181" fill="#E5E3E3" fill-rule="nonzero"></path>
            <g id="Group_96-Clipped" transform="translate(16.153750, 28.969933)">
                <mask id="mask-12" fill="white">
                    <use xlink:href="#path-11"></use>
                </mask>
                <g id="Rectangle_71"></g>
                <g id="Group_96" mask="url(#mask-12)" fill="#FFFFFF" fill-rule="nonzero">
                    <g transform="translate(-0.000007, -0.000243)" id="Path_182">
                        <path d="M11.2869973,0.0667848572 C7.33424709,3.37889812 4.23815125,7.61338385 2.26585504,12.4048713 C1.37561916,14.504168 0.694914239,16.6880376 0.233862649,18.9240051 C0.10090541,18.8649791 0.0109818804,18.7366617 0,18.5903017 L0,0.666656403 C-0.000776895511,0.490702205 0.0676257157,0.321640209 0.190166331,0.196663032 C0.312706946,0.0716858547 0.479347403,0.00103125393 0.653427808,0.000242814867 L11.0049945,0.000242814867 C11.0290551,-0.000739620507 11.0531443,0.00126162135 11.0767234,0.00620180373 C11.1500218,0.0125137832 11.2214224,0.0330853738 11.2869973,0.0667848572"></path>
                    </g>
                </g>
            </g>
            <g id="Group_99-Clipped" transform="translate(0.000000, 38.487432)">
                <mask id="mask-14" fill="white">
                    <use xlink:href="#path-13"></use>
                </mask>
                <g id="Rectangle_72"></g>
                <g id="Group_99" mask="url(#mask-14)" fill="#F5CECE" fill-rule="nonzero">
                    <g transform="translate(-0.000003, -0.000030)" id="Path_183">
                        <path d="M11.2869936,0.0665717269 C8.14829775,2.67598329 5.55097578,5.88687108 3.6444226,9.51454857 L0.653424127,9.51454857 C0.294779436,9.51454857 -8.63245562e-17,9.41523209 -8.63245562e-17,9.29406598 L-8.63245562e-17,0.660484284 C-0.000521069118,0.485158988 0.0681530221,0.316861842 0.190807041,0.19288757 C0.313461061,0.068913299 0.479965942,-0.000500002691 0.653424127,0 L10.9990952,0 C11.0988986,-0.000939914454 11.1975258,0.0218558108 11.2869936,0.0665717269"></path>
                    </g>
                </g>
            </g>
        </g>
    </g>
</svg>