<?xml version="1.0" encoding="UTF-8"?>
<svg width="73px" height="73px" viewBox="0 0 73 73" version="1.1" xmlns="http://www.w3.org/2000/svg" xmlns:xlink="http://www.w3.org/1999/xlink">
    <title>Icon-Menu--Student</title>
    <g id="Icon-Menu--Student" stroke="none" stroke-width="1" fill="none" fill-rule="evenodd">
        <g id="Artboard-–-3" transform="translate(12.000000, 6.000000)" fill-rule="nonzero">
            <g id="Component_48_3">
                <g id="g26739" transform="translate(0.000000, 27.217982)">
                    <path d="M0.738983739,14.1475075 C0.317059414,14.201266 0.000616424841,14.5609744 0,14.9875283 L0,21.7476476 C0.00181729391,22.1883601 0.340680356,22.553851 0.778821138,22.5876684 C9.69365317,22.6846052 18.1277752,26.6568459 23.8954675,33.4749765 C24.0367554,33.6680003 24.261244,33.7820178 24.5,33.7820178 C24.738756,33.7820178 24.9632445,33.6680003 25.1045325,33.4749765 C30.8722248,26.6568459 39.3063468,22.6846052 48.2211788,22.5876684 C48.6590968,22.5533879 48.997706,22.1881709 49,21.7476476 L49,14.9875283 C49,14.7611473 48.9134278,14.5433892 48.7579878,14.3792374 C48.6073979,14.2232345 48.3976753,14.1389558 48.1813414,14.1475075 C44.9943948,14.3662155 41.834261,14.8784452 38.740874,15.6777237 C33.8607927,16.9342589 28.1620528,19.1736483 24.499004,23.3817427 C20.8369512,19.1746471 15.1372154,16.9342589 10.2571341,15.6777237 C7.16263602,14.8789158 4.00155396,14.3666945 0.813678861,14.1475075 L0.738983739,14.1475075 Z" id="path10378-3" fill="#D99289"></path>
                    <path d="M17.1051829,0 C11.7271341,2.04961066 5.56130081,4.3059803 2.88522358,10.4528146 C2.70396341,10.8753221 2.53166666,11.3068191 2.37331301,11.7513009 C3.16308943,11.8511845 3.94589431,11.9990121 4.71276422,12.1218689 C11.8715447,13.3354542 19.2673577,15.3910578 24.8704878,20.5660251 C25.2608943,20.6329471 25.6433333,19.8818227 26.0427032,19.6670731 C32.2613211,14.739817 39.9758333,12.7481388 47.5648577,11.7912543 C47.4035162,11.3387818 47.2302235,10.8923023 47.0449796,10.4608053 C44.3778658,4.33394769 38.2429065,2.07058621 32.8738211,0.0299650682 C31.0945623,2.64494657 28.1403192,4.20744541 24.9837051,4.20304651 C21.827091,4.19864761 18.8771889,2.62792106 17.1051829,0.00799068485 L17.1051829,0 Z" id="path18716-6" stroke="#C1BCB4" stroke-width="0.99" fill="#FFFFFF"></path>
                </g>
                <path d="M8.58197154,7.92647127 L9.64861788,8.38893216 L9.5579878,9.10709496 C9.16618446,9.17588751 8.87140705,9.50338532 8.84313463,9.90129708 C8.81486222,10.2992088 9.06035749,10.665318 9.4384756,10.7891341 L8.7861382,19.8875277 C8.76967364,20.342564 8.82685121,20.797269 8.95544715,21.233958 L9.48229674,22.8151148 C9.600813,23.1776921 9.79800812,23.1776921 9.91752032,22.8151148 L10.4443699,21.233958 C10.5737856,20.7974562 10.6306506,20.3425609 10.6126829,19.8875277 L9.96632113,10.7891341 C10.3460228,10.6658874 10.5924615,10.2982244 10.5629189,9.89906743 C10.5333763,9.4999105 10.2355133,9.17276762 9.84182926,9.10709496 L9.76115853,8.4378751 L12.2241057,9.50862687 L13.4311789,10.0330156 L13.4311789,14.6126768 C12.9741717,15.8816906 12.7409603,17.220816 12.7419919,18.5700635 C12.7419919,25.0115543 17.9676626,31.8495829 24.3944309,31.8495829 C30.8211992,31.8495829 36.0468699,25.0115543 36.0468699,18.5700635 C36.0475643,17.2229706 35.8150463,15.8859847 35.3596748,14.6186698 L35.3596748,10.0330156 L36.565752,9.50862687 L40.210874,7.92547244 C41.1639837,7.50995683 41.1639837,6.83474396 40.210874,6.41922835 L26.1283536,0.310349781 C25.0092228,-0.103449927 23.779639,-0.103449927 22.6605081,0.310349781 L8.58197154,6.42122602 C7.62886178,6.83474396 7.62886178,7.51095566 8.58197154,7.92647127 Z" id="Path_790" stroke="#C1BCB4" stroke-width="0.99" fill="#FFFFFF"></path>
            </g>
        </g>
    </g>
</svg>